<?xml version="1.0" encoding="utf-8"?>
<!-- Generator: Adobe Illustrator 22.1.0, SVG Export Plug-In . SVG Version: 6.00 Build 0)  -->
<svg version="1.1" id="Слой_1" xmlns="http://www.w3.org/2000/svg" xmlns:xlink="http://www.w3.org/1999/xlink" x="0px" y="0px"
	 viewBox="0 0 319.2 101.3" style="enable-background:new 0 0 319.2 101.3;" xml:space="preserve">
<style type="text/css">
	.st0{fill:#40C4FF;}
</style>
<title>logo_blue</title>
<path class="st0" d="M16.8,66.4c0.5-1.6,0.8-3.2,0.8-4.9v-5.3L0,63.3v0.4c0.3,4.4,1.3,8.7,3,12.7L3.3,77l13.5-10.5L16.8,66.4z
	 M17.6,43.7L4.6,41.9l-0.2,0.3c-1.7,3.3-3,6.9-3.7,10.6l-0.1,0.7l17-2.4V43.7z M71.6,34.6c-2-2.4-4.2-4.5-6.7-6.3L64.6,28l-1.2,0.9
	v9.7l8.6-3.5L71.6,34.6z M80.3,52.8c-0.7-3.7-2-7.2-3.7-10.5l-0.2-0.3l-13.1,1.8v7.4l17,2.4L80.3,52.8z M17.6,29l-1.2-0.9l-0.3,0.2
	c-2.5,1.9-4.7,4-6.7,6.3L9,35.2l8.6,3.5L17.6,29z M57.7,61.5v-50L50,6.4v53.9c0,7.9,1.5,15.7,4.5,23l5.4,13.2l0.5-0.3
	c4.2-2.4,8-5.5,11.1-9.2l0.3-0.3l-9.6-12.3C59.3,70.7,57.7,66.1,57.7,61.5L57.7,61.5z M23.3,61.5c0,4.7-1.6,9.2-4.4,12.9L9.3,86.7
	L9.6,87c3.1,3.7,6.9,6.8,11.1,9.2l0.5,0.3l5.4-13.2c3-7.3,4.5-15.1,4.5-23V6.4l-7.7,5.1V61.5z M63.4,56.2v5.3c0,1.7,0.3,3.3,0.8,4.9
	v0.1L77.7,77l0.2-0.6c1.7-4.1,2.7-8.4,3-12.7v-0.4L63.4,56.2z M44.4,35V2.6L40.6,0l-3.8,2.6V35c0,21.8-1.3,43.5-4,65.1l-0.1,0.5
	l0.5,0.1c5,0.9,10,0.9,15,0l0.5-0.1l-0.1-0.5C45.8,78.5,44.4,56.8,44.4,35L44.4,35z"/>
<path class="st0" d="M156.7,62.2h5.7v4.5l-0.3,0.2c-1.5,0.9-3.2,1.4-5,1.3c-4.6,0.1-8.4-3.5-8.5-8.1c0-0.2,0-0.4,0-0.6
	c0-4.9,3.5-8.7,8-8.7c2.4,0,4.7,0.8,6.6,2.2l0.4,0.3l4-4.8l-0.4-0.3c-3-2.3-6.8-3.5-10.6-3.4c-8.6,0-15.1,6.2-15.1,14.5
	s6.4,14.5,15.2,14.5c4.3,0,8.5-1.4,11.8-4l0.2-0.1V57.5h-12.2L156.7,62.2z M128.3,73.3h6.9V45.4h-6.9V73.3z M115.4,63.2
	c4.7-2.1,6.9-7.6,4.9-12.3c-0.4-0.9-1-1.8-1.6-2.5c-2-2-5-3-9.1-3H96.4v5.8h12.8c3.1,0,5,1.5,5,4s-1.9,4.1-4.9,4.1H96.5v14h6.9v-8.8
	h4.5l5.9,8.8h7.9l-6.7-9.8L115.4,63.2z M188.5,56.4c-3.7-0.8-5.5-1.5-5.5-3.4c0-1.2,0.9-2.5,3.5-2.5c2.7,0.1,5.3,0.9,7.6,2.4
	l0.4,0.2l3.4-4.8l-0.4-0.3c-3.2-2.1-6.9-3.2-10.8-3.1c-6.5,0-10.7,3.4-10.7,8.7s3.7,7.1,10.5,8.6c3.6,0.9,5.4,1.6,5.4,3.4
	c0,0.8-0.4,2.7-3.9,2.7c-3.2,0-6.4-1.1-9-3l-0.4-0.3l-3.8,4.5l0.4,0.3c3.6,2.7,7.9,4.1,12.4,4c6.9,0,11.2-3.4,11.2-8.9
	C198.9,60.3,196,58,188.5,56.4L188.5,56.4z M319,45.4h-22.2V51H319L319,45.4z M303.6,67.6v-5.8H319v-5.2h-22.2v16.6h22.4v-5.7
	L303.6,67.6z M284.7,64.8c-1.6,1.9-3.9,3-6.4,3c-4.3,0-7.5-3.6-7.5-8.4s3.2-8.4,7.5-8.4c2.4,0,4.6,1,6.2,2.8l0.3,0.3l5-3.9l-0.3-0.4
	c-2.7-3.3-6.8-5.2-11.1-5c-7.9-0.2-14.5,6-14.7,13.9c0,0.2,0,0.4,0,0.6c-0.2,7.8,5.9,14.3,13.8,14.5c0.2,0,0.4,0,0.7,0
	c5.1,0,8.7-1.7,11.7-5.4l0.3-0.4l-5.1-3.8L284.7,64.8z M218.5,45.5h-11.9v27.9h6.9v-8.3h4.6c7.4,0,11.9-3.8,11.9-9.9
	S225.7,45.4,218.5,45.5L218.5,45.5z M218,59.9h-4.4V51h4.4c3.3,0,5.2,1.6,5.2,4.4S221,59.9,218,59.9L218,59.9z M242.5,45.2
	l-11.9,28.1h7.2l2.1-5.2h12l2.1,5.2h7.4l-11.9-28.1H242.5z M241.8,63.1l4.2-10.5L250,63L241.8,63.1z"/>
</svg>
